
        <svg xmlns="http://www.w3.org/2000/svg" xmlns:xlink="http://www.w3.org/1999/xlink" version="1.1" width="3187.5" 
        height="1125.8192434027878" viewBox="0 0 3187.5 1125.8192434027878">
			
			<g transform="scale(9.375) translate(10, 10)">
				<defs id="SvgjsDefs1811"></defs><g id="SvgjsG1812" featureKey="JKiIdh-0" transform="matrix(1.7256275612233298,0,0,1.7256275612233298,-3.53765531908647,-6.901526124255796)" fill="#399f6e"><title xmlns="http://www.w3.org/2000/svg">travel-globe-airplane-suitcase-vacation</title><rect xmlns="http://www.w3.org/2000/svg" x="46" y="52" width="2" height="8"></rect><rect xmlns="http://www.w3.org/2000/svg" x="58" y="52" width="2" height="8"></rect><rect xmlns="http://www.w3.org/2000/svg" x="51" y="48" width="4" height="2"></rect><rect xmlns="http://www.w3.org/2000/svg" x="50" y="52" width="6" height="8"></rect><path xmlns="http://www.w3.org/2000/svg" d="M9.2,14.913l-2.15-2.15L5.64,14.177,7.8,16.333c.225-.247.432-.5.671-.743S8.957,15.138,9.2,14.913Z"></path><path xmlns="http://www.w3.org/2000/svg" d="M9.21,17.747l2.2,2.2,1.414-1.414-2.206-2.206c-.248.224-.5.442-.737.677S9.434,17.5,9.21,17.747Z"></path><path xmlns="http://www.w3.org/2000/svg" d="M8.467,46.7a21.818,21.818,0,0,0,13.91,6.354V56h-7a5.009,5.009,0,0,0-4.9,4h-2.1v2h30V60h-2.1a5.009,5.009,0,0,0-4.9-4h-7V53.12a21.813,21.813,0,0,0,14.461-5.745L41.7,50.237l1.414-1.414-2.86-2.86a21.926,21.926,0,0,0,1.932-2.4l-1.651-1.128a20,20,0,0,1-1.695,2.113l-2-2L35.43,43.967l1.994,1.994A19.974,19.974,0,0,1,9.21,17.747L7.8,16.333A22.009,22.009,0,0,0,8.467,46.7Z"></path><path xmlns="http://www.w3.org/2000/svg" d="M12.474,14.815l-1.157-1.631A22.01,22.01,0,0,0,9.2,14.913l1.414,1.414A20.112,20.112,0,0,1,12.474,14.815Z"></path><path xmlns="http://www.w3.org/2000/svg" d="M39.284,25.206l-.406.878,1,1A15.757,15.757,0,0,0,39.284,25.206Z"></path><path xmlns="http://www.w3.org/2000/svg" d="M34.593,35.37l1.077-1.077A1,1,0,0,1,36.377,34h3.717a16.149,16.149,0,0,0,.286-3c0-.339-.012-.675-.033-1.007a.994.994,0,0,1-.674-.286l-1.688-1.688Z"></path><path xmlns="http://www.w3.org/2000/svg" d="M11.163,22h4.214a1.006,1.006,0,0,1,.555.168l2.517,1.678,1.481-.741A1,1,0,0,1,20.377,23h4a1.006,1.006,0,0,1,.555.168l3,2a1.007,1.007,0,0,1,.339.385l1,2a.99.99,0,0,1,.106.447v2.764l.454.908,3.679-13.8A15.95,15.95,0,0,0,12.844,19.93,16.073,16.073,0,0,0,11.163,22ZM19,19h1.756L22.1,17.364A1,1,0,0,1,22.875,17H24v2h1.382l.723-1.447,1.79.894-1,2A1,1,0,0,1,26,21H19Z"></path><path xmlns="http://www.w3.org/2000/svg" d="M33.429,41.316l-.663-1.988-.556,1.2a1,1,0,0,1-1.615.288L28.474,38.7a1,1,0,0,1-.259-.965l.2-.741c-.012,0-.023.006-.035.006H26.912l-1.458,2.187.893,3.57A1,1,0,0,1,25.377,44h-3a1,1,0,0,1-.948-.684l-1.95-5.846L16.877,34H15.539l-1.254.418a1,1,0,0,1-1.377.465l-1.824,1.824a1,1,0,0,1-1.383.03l-.361-.33A16.013,16.013,0,0,0,24.38,47a15.844,15.844,0,0,0,10.563-4.02L33.67,41.707A1,1,0,0,1,33.429,41.316Z"></path><path xmlns="http://www.w3.org/2000/svg" d="M58.525,30.568l-4.455.637a.994.994,0,0,1-.848-.283L41.908,19.608a1,1,0,0,1,.3-1.623L58.553,10.8l-.692-.691L37.9,14.923a1,1,0,0,1-.941-.265L28.551,6.25l-3.5-2.226c-.038-.024-.07-.046-.128.014s-.038.09-.014.128l2.227,3.5,8.407,8.408a1,1,0,0,1,.259.965L30.3,37.693l.7.7,7.884-17.082a1,1,0,0,1,1.615-.289L51.808,32.336a1,1,0,0,1,.283.849l-.637,4.454.624.624,1.61-4.829a1,1,0,0,1,.631-.632l4.829-1.61Z"></path><path xmlns="http://www.w3.org/2000/svg" d="M35.251,40.46l1.113,1.113a15.869,15.869,0,0,0,3.013-5.026V36H36.791l-2.27,2.27Z"></path><path xmlns="http://www.w3.org/2000/svg" d="M26.6,26.685,24.074,25H20.613l-1.789.895a1,1,0,0,1-1-.063L15.074,24H10A15.726,15.726,0,0,0,8.38,31a15.957,15.957,0,0,0,.128,1.93l1.839,1.686,1.323-1.323a1,1,0,0,1,.391-.242l.71-.237a1.068,1.068,0,0,1,.148-.037,1.036,1.036,0,0,1,.142-.059l2-.667A1,1,0,0,1,15.377,32h2a1,1,0,0,1,.8.4l3,4a.987.987,0,0,1,.148.284L23.1,42h1l-.689-2.757a1,1,0,0,1,.138-.8l2-3A1,1,0,0,1,26.377,35h1.279l.641-1.923-.815-1.63A1,1,0,0,1,27.377,31V28.236Z"></path></g><g id="SvgjsG1813" featureKey="A7DQL5-0" transform="matrix(5.063291139240507,0,0,5.063291139240507,120,-15.177222626118724)" fill="#111111"><path d="M7.04 20 c-1.22 0 -2.38 -0.32 -3.48 -0.96 c-2.2 -1.26 -3.56 -3.58 -3.56 -6.06 c0 -1.24 0.32 -2.4 0.96 -3.5 c1.26 -2.16 3.62 -3.52 6.08 -3.52 c1.22 0 2.4 0.32 3.5 0.94 c2.2 1.28 3.52 3.66 3.52 6.08 c0 1.22 -0.32 2.36 -0.94 3.46 c-1.28 2.2 -3.6 3.56 -6.08 3.56 z M7.04 6.66 c-1.14 0 -2.2 0.28 -3.16 0.84 c-1.94 1.12 -3.14 3.18 -3.14 5.48 c0 1.14 0.28 2.2 0.84 3.16 c1.12 1.94 3.16 3.14 5.46 3.14 c1.14 0 2.2 -0.28 3.18 -0.84 c1.94 -1.12 3.14 -3.16 3.14 -5.46 c0 -1.14 -0.28 -2.2 -0.84 -3.18 c-1.12 -1.94 -3.24 -3.14 -5.48 -3.14 z M7.04 18.64 c-1 0 -1.94 -0.26 -2.84 -0.76 c-1.78 -1.02 -2.88 -2.88 -2.88 -4.9 c0 -1.02 0.26 -1.96 0.76 -2.84 c1.02 -1.76 2.82 -2.8 4.96 -2.8 c1.08 0 2.06 0.24 2.92 0.72 c1.72 0.96 2.72 2.76 2.72 4.92 c0 1.02 -0.24 1.96 -0.72 2.82 c-0.98 1.74 -2.9 2.84 -4.92 2.84 z M7.04 8.04 c-0.9 0 -1.72 0.22 -2.48 0.66 c-1.54 0.88 -2.48 2.46 -2.48 4.28 c0 0.88 0.22 1.7 0.68 2.46 c0.88 1.54 2.44 2.5 4.28 2.5 c0.9 0 1.72 -0.22 2.48 -0.68 c1.5 -0.88 2.46 -2.52 2.46 -4.28 c0 -0.9 -0.22 -1.74 -0.66 -2.5 c-0.88 -1.52 -2.54 -2.44 -4.28 -2.44 z M7.04 17.34 c-0.78 0 -1.52 -0.2 -2.18 -0.58 c-1.34 -0.78 -2.2 -2.26 -2.2 -3.78 c0 -0.78 0.2 -1.52 0.6 -2.2 c0.78 -1.36 2.16 -2.14 3.78 -2.14 c0.78 0 1.5 0.2 2.16 0.58 c1.34 0.78 2.12 2.14 2.12 3.76 c0 0.8 -0.18 1.52 -0.54 2.18 c-0.74 1.32 -2.16 2.18 -3.74 2.18 z M7.04 9.36 c-0.64 0 -1.24 0.16 -1.8 0.48 c-1.12 0.66 -1.84 1.84 -1.84 3.14 c0 0.64 0.16 1.24 0.48 1.78 c0.64 1.12 1.8 1.8 3.16 1.8 c0.66 0 1.28 -0.16 1.82 -0.48 c1.1 -0.64 1.76 -1.82 1.76 -3.1 c0 -0.66 -0.16 -1.26 -0.48 -1.82 c-0.64 -1.12 -1.82 -1.8 -3.1 -1.8 z M18.9 8.6 l4.78 0 l0 -1.9 l-8.5 0 l0 0.62 l7.82 0 l0 0.72 l-8.54 0 l0 -2.06 l9.94 0 l0 3.34 l-4.78 0 l0 9.36 l-0.72 0 l0 -10.08 z M17.560000000000002 9.32 l-3.1 0 l0 -0.72 l3.82 0 l0 10.66 l2 0 l0 -9.32 l0.72 0 l0 10.06 l-3.44 0 l0 -10.68 z M27.740000000000002 18.76 l0.88 0 l0.7 -1.68 l5.22 0.02 l1.28 2.9 l3.68 -0.02 l-6.3 -13.98 l-1.28 0 l-6.26 13.98 l3.9 0 l0.68 -1.6 l3.98 0 l-0.3 -0.68 l-4.12 0 l-0.64 1.58 l-2.38 0 l5.54 -12.6 l0.48 0 l5.56 12.6 l-2.12 0 l-1.28 -2.86 l-6.2 0 z M30.12 15.24 l2.44 -5.82 l4.1 9.32 l0.82 0 l-4.92 -10.96 l-3.6 8.08 l5.8 0 l-2.2 -4.86 l-1.52 3.66 l0.78 0 l0.74 -1.82 l1.14 2.4 l-3.58 0 z"></path></g>
			</g>
		</svg>
	