<svg width="30" height="30" viewBox="0 0 30 30" fill="none" xmlns="http://www.w3.org/2000/svg">
<path d="M21.7963 24.9175C21.7963 25.249 21.6646 25.567 21.4301 25.8014C21.1957 26.0358 20.8778 26.1675 20.5463 26.1675C20.2147 26.1675 19.8968 26.0358 19.6624 25.8014C19.428 25.567 19.2963 25.249 19.2963 24.9175C19.2963 24.586 19.428 24.268 19.6624 24.0336C19.8968 23.7992 20.2147 23.6675 20.5463 23.6675C20.8778 23.6675 21.1957 23.7992 21.4301 24.0336C21.6646 24.268 21.7963 24.586 21.7963 24.9175ZM7.77501 19.585L6.59376 5.96C6.57578 5.72413 6.4693 5.50377 6.29566 5.34311C6.12202 5.18246 5.89407 5.09338 5.65751 5.09375H4.45001C4.28425 5.09375 4.12528 5.0279 4.00807 4.91069C3.89086 4.79348 3.82501 4.63451 3.82501 4.46875C3.82501 4.30299 3.89086 4.14402 4.00807 4.02681C4.12528 3.9096 4.28425 3.84375 4.45001 3.84375H5.65751C6.20912 3.84342 6.7405 4.05149 7.14521 4.4263C7.54992 4.80111 7.79809 5.31498 7.84001 5.865L8.01376 8.1375H24.3013C25.4075 8.1375 26.2725 9.0875 26.1688 10.185L25.3338 19.585C25.2612 20.36 24.9021 21.08 24.3266 21.6041C23.7512 22.1282 23.0009 22.4187 22.2225 22.4187H10.8863C10.1079 22.4187 9.35758 22.1282 8.78214 21.6041C8.20669 21.08 7.84755 20.36 7.77501 19.585ZM8.11751 9.3875L9.02001 19.47C9.06388 19.9346 9.27945 20.3662 9.62457 20.6803C9.9697 20.9945 10.4196 21.1686 10.8863 21.1687H22.2225C22.6892 21.1686 23.1391 20.9945 23.4842 20.6803C23.8293 20.3662 24.0449 19.9346 24.0888 19.47L24.9238 10.0725C24.9321 9.98573 24.9223 9.89818 24.8948 9.81546C24.8673 9.73273 24.8228 9.65667 24.7642 9.59216C24.7056 9.52765 24.6341 9.47612 24.5544 9.44087C24.4746 9.40563 24.3884 9.38745 24.3013 9.3875H8.11751ZM13.685 24.9175C13.685 25.249 13.5533 25.567 13.3189 25.8014C13.0845 26.0358 12.7665 26.1675 12.435 26.1675C12.1035 26.1675 11.7855 26.0358 11.5511 25.8014C11.3167 25.567 11.185 25.249 11.185 24.9175C11.185 24.586 11.3167 24.268 11.5511 24.0336C11.7855 23.7992 12.1035 23.6675 12.435 23.6675C12.7665 23.6675 13.0845 23.7992 13.3189 24.0336C13.5533 24.268 13.685 24.586 13.685 24.9175Z" fill="#333333"/>
</svg>
