<svg width="30" height="30" viewBox="0 0 30 30" fill="none" xmlns="http://www.w3.org/2000/svg">
<path d="M2.08333 7.08334H27.9167V22.9167H2.08333V7.08334Z" fill="#D22F27"/>
<path d="M16.9333 13.7708L18.205 15.4454L16.1492 14.8071L18.2042 14.165L16.935 15.8421L16.9333 13.7708ZM13.0375 18.6C12.4934 18.5983 11.9567 18.4734 11.4678 18.2346C10.9789 17.9957 10.5505 17.6492 10.2147 17.2211C9.87896 16.7929 9.64458 16.2942 9.52919 15.7625C9.41379 15.2308 9.42039 14.6798 9.54849 14.151C9.67658 13.6221 9.92284 13.1292 10.2688 12.7092C10.6147 12.2892 11.0513 11.9531 11.5458 11.726C12.0403 11.499 12.5798 11.3869 13.1238 11.3983C13.6678 11.4097 14.2021 11.5442 14.6867 11.7917C14.0499 11.1403 13.2334 10.6935 12.3416 10.5083C11.4497 10.323 10.5229 10.4077 9.67936 10.7516C8.83585 11.0954 8.11392 11.6828 7.60572 12.4387C7.09752 13.1947 6.8261 14.0849 6.8261 14.9958C6.8261 15.9067 7.09752 16.797 7.60572 17.5529C8.11392 18.3089 8.83585 18.8963 9.67936 19.2401C10.5229 19.5839 11.4497 19.6686 12.3416 19.4834C13.2334 19.2981 14.0499 18.8513 14.6867 18.2C14.1759 18.4603 13.6108 18.5959 13.0375 18.5958V18.6Z" fill="white" stroke="white" stroke-width="0.416667" stroke-linecap="round" stroke-linejoin="round"/>
<path d="M2.08333 7.08334H27.9167V22.9167H2.08333V7.08334Z" stroke="black" stroke-width="0.833333" stroke-linecap="round" stroke-linejoin="round"/>
</svg>
